<svg width="148" height="20" viewBox="0 0 148 20" fill="none" xmlns="http://www.w3.org/2000/svg">
<path d="M7.60547 19H5.60156V3.625H0.210938V1.86719H12.9727V3.625H7.60547V19ZM20.0742 5.94531C21.6055 5.94531 22.7422 6.28906 23.4844 6.97656C24.2266 7.66406 24.5977 8.76172 24.5977 10.2695V19H23.1797L22.8047 17.1016H22.7109C22.3516 17.5703 21.9766 17.9648 21.5859 18.2852C21.1953 18.5977 20.7422 18.8359 20.2266 19C19.7188 19.1562 19.0938 19.2344 18.3516 19.2344C17.5703 19.2344 16.875 19.0977 16.2656 18.8242C15.6641 18.5508 15.1875 18.1367 14.8359 17.582C14.4922 17.0273 14.3203 16.3242 14.3203 15.4727C14.3203 14.1914 14.8281 13.207 15.8438 12.5195C16.8594 11.832 18.4062 11.457 20.4844 11.3945L22.6992 11.3008V10.5156C22.6992 9.40625 22.4609 8.62891 21.9844 8.18359C21.5078 7.73828 20.8359 7.51562 19.9688 7.51562C19.2969 7.51562 18.6562 7.61328 18.0469 7.80859C17.4375 8.00391 16.8594 8.23438 16.3125 8.5L15.7148 7.02344C16.293 6.72656 16.957 6.47266 17.707 6.26172C18.457 6.05078 19.2461 5.94531 20.0742 5.94531ZM22.6758 12.6719L20.7188 12.7539C19.1172 12.8164 17.9883 13.0781 17.332 13.5391C16.6758 14 16.3477 14.6523 16.3477 15.4961C16.3477 16.2305 16.5703 16.7734 17.0156 17.125C17.4609 17.4766 18.0508 17.6523 18.7852 17.6523C19.9258 17.6523 20.8594 17.3359 21.5859 16.7031C22.3125 16.0703 22.6758 15.1211 22.6758 13.8555V12.6719ZM30.5625 19H28.6055V0.765625H30.5625V19ZM36.6328 19H34.6758V0.765625H36.6328V19ZM45.6914 5.92188C46.7852 5.92188 47.7227 6.16406 48.5039 6.64844C49.2852 7.13281 49.8828 7.8125 50.2969 8.6875C50.7109 9.55469 50.918 10.5703 50.918 11.7344V12.9414H42.0469C42.0703 14.4492 42.4453 15.5977 43.1719 16.3867C43.8984 17.1758 44.9219 17.5703 46.2422 17.5703C47.0547 17.5703 47.7734 17.4961 48.3984 17.3477C49.0234 17.1992 49.6719 16.9805 50.3438 16.6914V18.4023C49.6953 18.6914 49.0508 18.9023 48.4102 19.0352C47.7773 19.168 47.0273 19.2344 46.1602 19.2344C44.9258 19.2344 43.8477 18.9844 42.9258 18.4844C42.0117 17.9766 41.3008 17.2344 40.793 16.2578C40.2852 15.2812 40.0312 14.0859 40.0312 12.6719C40.0312 11.2891 40.2617 10.0938 40.7227 9.08594C41.1914 8.07031 41.8477 7.28906 42.6914 6.74219C43.543 6.19531 44.543 5.92188 45.6914 5.92188ZM45.668 7.51562C44.6289 7.51562 43.8008 7.85547 43.1836 8.53516C42.5664 9.21484 42.1992 10.1641 42.082 11.3828H48.8789C48.8711 10.6172 48.75 9.94531 48.5156 9.36719C48.2891 8.78125 47.9414 8.32812 47.4727 8.00781C47.0039 7.67969 46.4023 7.51562 45.668 7.51562ZM62.5312 15.4844C62.5312 16.3047 62.3242 16.9961 61.9102 17.5586C61.5039 18.1133 60.918 18.5312 60.1523 18.8125C59.3945 19.0938 58.4883 19.2344 57.4336 19.2344C56.5352 19.2344 55.7578 19.1641 55.1016 19.0234C54.4453 18.8828 53.8711 18.6836 53.3789 18.4258V16.6328C53.9023 16.8906 54.5273 17.125 55.2539 17.3359C55.9805 17.5469 56.7227 17.6523 57.4805 17.6523C58.5898 17.6523 59.3945 17.4727 59.8945 17.1133C60.3945 16.7539 60.6445 16.2656 60.6445 15.6484C60.6445 15.2969 60.543 14.9883 60.3398 14.7227C60.1445 14.4492 59.8125 14.1875 59.3438 13.9375C58.875 13.6797 58.2266 13.3984 57.3984 13.0938C56.5781 12.7812 55.8672 12.4727 55.2656 12.168C54.6719 11.8555 54.2109 11.4766 53.8828 11.0312C53.5625 10.5859 53.4023 10.0078 53.4023 9.29688C53.4023 8.21094 53.8398 7.37891 54.7148 6.80078C55.5977 6.21484 56.7539 5.92188 58.1836 5.92188C58.957 5.92188 59.6797 6 60.3516 6.15625C61.0312 6.30469 61.6641 6.50781 62.25 6.76562L61.5938 8.32422C61.0625 8.09766 60.4961 7.90625 59.8945 7.75C59.293 7.59375 58.6797 7.51562 58.0547 7.51562C57.1562 7.51562 56.4648 7.66406 55.9805 7.96094C55.5039 8.25781 55.2656 8.66406 55.2656 9.17969C55.2656 9.57812 55.375 9.90625 55.5938 10.1641C55.8203 10.4219 56.1797 10.6641 56.6719 10.8906C57.1641 11.1172 57.8125 11.3828 58.6172 11.6875C59.4219 11.9844 60.1172 12.293 60.7031 12.6133C61.2891 12.9258 61.7383 13.3086 62.0508 13.7617C62.3711 14.207 62.5312 14.7812 62.5312 15.4844ZM79.5117 10.0234H85.5V18.332C84.6016 18.6367 83.6758 18.8633 82.7227 19.0117C81.7773 19.1602 80.7188 19.2344 79.5469 19.2344C77.7656 19.2344 76.2617 18.8789 75.0352 18.168C73.8164 17.457 72.8906 16.4453 72.2578 15.1328C71.625 13.8125 71.3086 12.2461 71.3086 10.4336C71.3086 8.66016 71.6562 7.11328 72.3516 5.79297C73.0547 4.47266 74.0664 3.44922 75.3867 2.72266C76.7148 1.98828 78.3086 1.62109 80.168 1.62109C81.1211 1.62109 82.0234 1.71094 82.875 1.89062C83.7344 2.0625 84.5312 2.30859 85.2656 2.62891L84.5039 4.36328C83.8711 4.08984 83.1719 3.85547 82.4062 3.66016C81.6484 3.46484 80.8633 3.36719 80.0508 3.36719C78.6523 3.36719 77.4531 3.65625 76.4531 4.23438C75.4609 4.8125 74.6992 5.62891 74.168 6.68359C73.6445 7.73828 73.3828 8.98828 73.3828 10.4336C73.3828 11.8633 73.6133 13.1094 74.0742 14.1719C74.5352 15.2266 75.2539 16.0469 76.2305 16.6328C77.207 17.2188 78.4648 17.5117 80.0039 17.5117C80.7773 17.5117 81.4414 17.4688 81.9961 17.3828C82.5508 17.2891 83.0547 17.1797 83.5078 17.0547V11.8047H79.5117V10.0234ZM100.43 12.5547C100.43 13.6094 100.293 14.5508 100.02 15.3789C99.7461 16.207 99.3516 16.9062 98.8359 17.4766C98.3203 18.0469 97.6953 18.4844 96.9609 18.7891C96.2344 19.0859 95.4102 19.2344 94.4883 19.2344C93.6289 19.2344 92.8398 19.0859 92.1211 18.7891C91.4102 18.4844 90.793 18.0469 90.2695 17.4766C89.7539 16.9062 89.3516 16.207 89.0625 15.3789C88.7812 14.5508 88.6406 13.6094 88.6406 12.5547C88.6406 11.1484 88.8789 9.95312 89.3555 8.96875C89.832 7.97656 90.5117 7.22266 91.3945 6.70703C92.2852 6.18359 93.3438 5.92188 94.5703 5.92188C95.7422 5.92188 96.7656 6.18359 97.6406 6.70703C98.5234 7.23047 99.207 7.98828 99.6914 8.98047C100.184 9.96484 100.43 11.1562 100.43 12.5547ZM90.6562 12.5547C90.6562 13.5859 90.793 14.4805 91.0664 15.2383C91.3398 15.9961 91.7617 16.582 92.332 16.9961C92.9023 17.4102 93.6367 17.6172 94.5352 17.6172C95.4258 17.6172 96.1562 17.4102 96.7266 16.9961C97.3047 16.582 97.7305 15.9961 98.0039 15.2383C98.2773 14.4805 98.4141 13.5859 98.4141 12.5547C98.4141 11.5312 98.2773 10.6484 98.0039 9.90625C97.7305 9.15625 97.3086 8.57812 96.7383 8.17188C96.168 7.76562 95.4297 7.5625 94.5234 7.5625C93.1875 7.5625 92.207 8.00391 91.582 8.88672C90.9648 9.76953 90.6562 10.9922 90.6562 12.5547ZM117.738 5.92188C119.152 5.92188 120.219 6.29297 120.938 7.03516C121.656 7.76953 122.016 8.95312 122.016 10.5859V19H120.094V10.6797C120.094 9.64062 119.867 8.86328 119.414 8.34766C118.969 7.82422 118.305 7.5625 117.422 7.5625C116.18 7.5625 115.277 7.92188 114.715 8.64062C114.152 9.35938 113.871 10.418 113.871 11.8164V19H111.938V10.6797C111.938 9.98438 111.836 9.40625 111.633 8.94531C111.438 8.48438 111.141 8.14062 110.742 7.91406C110.352 7.67969 109.855 7.5625 109.254 7.5625C108.402 7.5625 107.719 7.73828 107.203 8.08984C106.688 8.44141 106.312 8.96484 106.078 9.66016C105.852 10.3477 105.738 11.1953 105.738 12.2031V19H103.793V6.15625H105.363L105.656 7.97266H105.762C106.02 7.52734 106.344 7.15234 106.734 6.84766C107.125 6.54297 107.562 6.3125 108.047 6.15625C108.531 6 109.047 5.92188 109.594 5.92188C110.57 5.92188 111.387 6.10547 112.043 6.47266C112.707 6.83203 113.188 7.38281 113.484 8.125H113.59C114.012 7.38281 114.59 6.83203 115.324 6.47266C116.059 6.10547 116.863 5.92188 117.738 5.92188ZM130.957 5.92188C132.051 5.92188 132.988 6.16406 133.77 6.64844C134.551 7.13281 135.148 7.8125 135.562 8.6875C135.977 9.55469 136.184 10.5703 136.184 11.7344V12.9414H127.312C127.336 14.4492 127.711 15.5977 128.438 16.3867C129.164 17.1758 130.188 17.5703 131.508 17.5703C132.32 17.5703 133.039 17.4961 133.664 17.3477C134.289 17.1992 134.938 16.9805 135.609 16.6914V18.4023C134.961 18.6914 134.316 18.9023 133.676 19.0352C133.043 19.168 132.293 19.2344 131.426 19.2344C130.191 19.2344 129.113 18.9844 128.191 18.4844C127.277 17.9766 126.566 17.2344 126.059 16.2578C125.551 15.2812 125.297 14.0859 125.297 12.6719C125.297 11.2891 125.527 10.0938 125.988 9.08594C126.457 8.07031 127.113 7.28906 127.957 6.74219C128.809 6.19531 129.809 5.92188 130.957 5.92188ZM130.934 7.51562C129.895 7.51562 129.066 7.85547 128.449 8.53516C127.832 9.21484 127.465 10.1641 127.348 11.3828H134.145C134.137 10.6172 134.016 9.94531 133.781 9.36719C133.555 8.78125 133.207 8.32812 132.738 8.00781C132.27 7.67969 131.668 7.51562 130.934 7.51562ZM147.797 15.4844C147.797 16.3047 147.59 16.9961 147.176 17.5586C146.77 18.1133 146.184 18.5312 145.418 18.8125C144.66 19.0938 143.754 19.2344 142.699 19.2344C141.801 19.2344 141.023 19.1641 140.367 19.0234C139.711 18.8828 139.137 18.6836 138.645 18.4258V16.6328C139.168 16.8906 139.793 17.125 140.52 17.3359C141.246 17.5469 141.988 17.6523 142.746 17.6523C143.855 17.6523 144.66 17.4727 145.16 17.1133C145.66 16.7539 145.91 16.2656 145.91 15.6484C145.91 15.2969 145.809 14.9883 145.605 14.7227C145.41 14.4492 145.078 14.1875 144.609 13.9375C144.141 13.6797 143.492 13.3984 142.664 13.0938C141.844 12.7812 141.133 12.4727 140.531 12.168C139.938 11.8555 139.477 11.4766 139.148 11.0312C138.828 10.5859 138.668 10.0078 138.668 9.29688C138.668 8.21094 139.105 7.37891 139.98 6.80078C140.863 6.21484 142.02 5.92188 143.449 5.92188C144.223 5.92188 144.945 6 145.617 6.15625C146.297 6.30469 146.93 6.50781 147.516 6.76562L146.859 8.32422C146.328 8.09766 145.762 7.90625 145.16 7.75C144.559 7.59375 143.945 7.51562 143.32 7.51562C142.422 7.51562 141.73 7.66406 141.246 7.96094C140.77 8.25781 140.531 8.66406 140.531 9.17969C140.531 9.57812 140.641 9.90625 140.859 10.1641C141.086 10.4219 141.445 10.6641 141.938 10.8906C142.43 11.1172 143.078 11.3828 143.883 11.6875C144.688 11.9844 145.383 12.293 145.969 12.6133C146.555 12.9258 147.004 13.3086 147.316 13.7617C147.637 14.207 147.797 14.7812 147.797 15.4844Z" fill="black"/>
</svg>
